<svg x="50" y="0" width="24" height="24" viewBox="0 0 24 24" fill="none" xmlns="http://www.w3.org/2000/svg"
    focusable="false">
    <g clip-path="url(#clip0_1409_12357)">
        <path
            d="M6.45001 0.960119L4.89644 2.8344L3.26787 4.45726L1.7143 6.22869L0.578583 7.5544L0.889297 17.143L2.41073 18.4344L4.50001 20.8001L6.90001 23.4058L16.8 23.623L19.2429 21.1201L21.8679 18.1715L23.4536 16.5487L23.0786 6.78869L21.8464 5.97726L20.1 3.64583L18.4072 2.25155L17.3357 0.514404"
            fill="#FFCC40"></path>
        <path d="M5.37858 3.26855L17.9786 3.26855V1.67998L5.37858 1.67998V3.26855Z" fill="#FFDD88"></path>
        <path d="M5.95715 4.88003V4.08003V3.28003H5.20715H4.45715V4.08003V4.88003H5.20715H5.95715Z" fill="#FFDD88">
        </path>
        <path d="M4.45715 6.47988V5.67988V4.87988H3.70715H2.95715V5.67988V6.47988H3.70715H4.45715Z" fill="#FFDD88">
        </path>
        <path d="M1.47858 6.4684L1.47858 17.7141H2.96786L2.96786 6.4684H1.47858Z" fill="#FFDD88"></path>
        <path
            d="M19.5 2.3999H18.75H18V3.1999H18.75H19.5V3.9999V4.7999H20.25H21V5.5999V6.3999H21.75H22.5V5.5999V4.7999H21.75H21V3.9999V3.1999H20.25H19.5V2.3999Z"
            fill="black"></path>
        <path
            d="M18.75 1.6H18V0.8V0H17.25H16.5H15.75H15H14.25H13.5H12.75H12H11.25H10.5H9.75H9H8.25H7.5H6.75H6V0.8V1.6H5.25H4.5V2.4H5.25H6V1.6H6.75H7.5H8.25H9H9.75H10.5H11.25H12H12.75H13.5H14.25H15H15.75H16.5H17.25H18V2.4H18.75H19.5V1.6H18.75Z"
            fill="black"></path>
        <path
            d="M4.5 2.3999V3.1999H3.75H3V3.9999V4.7999H2.25H1.5V5.5999V6.3999H2.25H3V5.5999V4.7999H3.75H4.5V3.9999V3.1999H5.25H6V2.3999H5.25H4.5Z"
            fill="black"></path>
        <path
            d="M23.25 6.3999H22.5V7.1999V7.9999V8.7999V9.5999V10.3999H23.25H24V9.5999V8.7999V7.9999V7.1999V6.3999H23.25Z"
            fill="black"></path>
        <path d="M1.5 10.3999V9.5999V8.7999V7.9999V7.1999V6.3999H0.75H0V7.1999V7.9999V8.7999V9.5999V10.3999H0.75H1.5Z"
            fill="black"></path>
        <path
            d="M22.5 10.3999V11.1999V11.9999V12.7999V13.5999V14.3999H23.25H24V13.5999V12.7999V11.9999V11.1999V10.3999H23.25H22.5Z"
            fill="black"></path>
        <path
            d="M1.5 14.3999V13.5999V12.7999V11.9999V11.1999V10.3999H0.75H0V11.1999V11.9999V12.7999V13.5999V14.3999H0.75H1.5Z"
            fill="black"></path>
        <path
            d="M22.5 14.3999V15.1999V15.9999V16.7999V17.5999H21.75H21V18.3999H21.75H22.5V17.5999H23.25H24V16.7999V15.9999V15.1999V14.3999H23.25H22.5Z"
            fill="black"></path>
        <path
            d="M1.5 18.3999H2.25H3V17.5999H2.25H1.5V16.7999V15.9999V15.1999V14.3999H0.75H0V15.1999V15.9999V16.7999V17.5999H0.75H1.5V18.3999Z"
            fill="black"></path>
        <path d="M21 18.3999V19.1999H20.25H19.5V19.9999V20.7999H20.25H21V19.9999V19.1999H21.75H22.5V18.3999H21.75H21Z"
            fill="black"></path>
        <path d="M18.5893 20.8H5.98929V22.3886H18.5893V20.8Z" fill="#E59D08"></path>
        <path d="M18 19.2V20V20.8H18.75H19.5V20V19.2H18.75H18Z" fill="#E59D08"></path>
        <path d="M19.5 17.5886V18.3886V19.1886H20.25H21V18.3886V17.5886H20.25H19.5Z" fill="#E59D08"></path>
        <path d="M22.4786 17.6114V6.36572H20.9893V17.6114H22.4786Z" fill="#E59D08"></path>
        <path d="M4.5 19.1999H3.75H3V18.3999H2.25H1.5V19.1999H2.25H3V19.9999V20.7999H3.75H4.5V19.9999V19.1999Z"
            fill="black"></path>
        <path d="M18 20.8V21.6V22.4H18.75H19.5V21.6V20.8H18.75H18Z" fill="black"></path>
        <path d="M6 21.6V20.8H5.25H4.5V21.6V22.4H5.25H6V21.6Z" fill="black"></path>
        <path
            d="M16.5 22.3999H15.75H15H14.25H13.5H12.75H12H11.25H10.5H9.75H9H8.25H7.5H6.75H6V23.1999V23.9999H6.75H7.5H8.25H9H9.75H10.5H11.25H12H12.75H13.5H14.25H15H15.75H16.5H17.25H18V23.1999V22.3999H17.25H16.5Z"
            fill="black"></path>
        <path
            d="M9 6.40005H9.75H10.5H11.25H12H12.75H13.5H14.25H15H15.75H16.5V5.60005V4.80005H15.75H15H14.25H13.5H12.75H12H11.25H10.5H9.75H9H8.25H7.5V5.60005V6.40005H8.25H9Z"
            fill="#CE892F"></path>
        <path
            d="M18.75 8.00015H18V7.20015V6.40015H17.25H16.5V7.20015V8.00015H17.25H18V8.80015V9.60015V10.4001H18.75H19.5V9.60015V8.80015V8.00015H18.75Z"
            fill="#CE892F"></path>
        <path
            d="M6 10.4001V9.60015V8.80015V8.00015H6.75H7.5V7.20015V6.40015H6.75H6V7.20015V8.00015H5.25H4.5V8.80015V9.60015V10.4001H5.25H6Z"
            fill="#CE892F"></path>
        <path
            d="M18 10.4001V11.2001V12.0001V12.8001V13.6001V14.4001H18.75H19.5V13.6001V12.8001V12.0001V11.2001V10.4001H18.75H18Z"
            fill="#CE892F"></path>
        <path
            d="M6 14.4001V13.6001V12.8001V12.0001V11.2001V10.4001H5.25H4.5V11.2001V12.0001V12.8001V13.6001V14.4001H5.25H6Z"
            fill="#CE892F"></path>
        <path d="M18 14.4001V15.2001V16.0001H18.75H19.5V15.2001V14.4001H18.75H18Z" fill="#CE892F"></path>
        <path d="M6 15.2001V14.4001H5.25H4.5V15.2001V16.0001H5.25H6V15.2001Z" fill="#CE892F"></path>
        <path
            d="M16.5 16V16.8V17.6H15.75H15H14.25H13.5H12.75H12H11.25H10.5H9.75H9H8.25H7.5V16.8V16H6.75H6V16.8V17.6H6.75H7.5V18.4H8.25H9H9.75H10.5H11.25H12H12.75H13.5H14.25H15H15.75H16.5V17.6H17.25H18V16.8V16H17.25H16.5Z"
            fill="#CE892F"></path>
        <path
            d="M15 18.4001H14.25H13.5H12.75H12H11.25H10.5H9.75H9H8.25H7.5V19.2001H8.25H9H9.75H10.5H11.25H12H12.75H13.5H14.25H15H15.75H16.5V18.4001H15.75H15Z"
            fill="#CE892F"></path>
        <path
            d="M8.79642 14.0685V8.58276H10.0928V14.0342H11.3571V11.3028H12.6536V14.0342H13.875V8.58276H15.2143V14.0685H13.9178V15.417H12.6214V14.0685H11.4V15.417H10.0714V14.0685H8.80713H8.79642Z"
            fill="#685032"></path>
    </g>
    <defs>
        <clipPath id="clip0_1409_12357">
            <rect width="24" height="24" fill="white"></rect>
        </clipPath>
    </defs>
</svg>