<svg x="150" y="15" width="28" height="28" viewBox="0 0 24 24" fill="none" xmlns="http://www.w3.org/2000/svg"
    focusable="false">
    <g clip-path="url(#clip0_1403_12383)">
        <path d="M23.1988 0.778809H0.901413V19.1859H23.1988V0.778809Z" fill="#E5D6C5"></path>
        <path d="M20.4945 17.2979H3.40532V22.3952H20.4945V17.2979Z" fill="#E5D6C5"></path>
        <path d="M18.8294 4.81421H17.1142V19.1977H18.8294V4.81421Z" fill="#CCB7A3"></path>
        <path d="M22.435 0.967529H20.2692V19.1032H22.435V0.967529Z" fill="#CCB7A3"></path>
        <path d="M18.5039 20.7551H6.83568V22.525H18.5039V20.7551Z" fill="#CCB7A3"></path>
        <path d="M5.10798 1.15625H1.47731V17.5574H5.10798V1.15625Z" fill="#FCEFE3"></path>
        <path d="M20.5822 17.5811H17.1268V21.0029H20.5822V17.5811Z" fill="#CCB7A3"></path>
        <path
            d="M22.2848 12.0471H19.8435V17.5928H17.1268V19.9527H12.9828V22.7374H18.867V20.8731H20.5822V19.1976H22.2848V12.0471Z"
            fill="#B59983"></path>
        <path
            d="M23.1362 0H22.2848H21.421H20.5696H19.7058H18.8545H17.9906H17.1393H16.2754H15.4241H14.5728H13.7089H12.8576H11.9937H11.1424H10.2786H9.42723H8.56338H7.71205H6.86072H5.99687H5.14554H4.28169H3.43036H2.56651H1.71518H0.85133H0V0.80236V1.60472V2.39528V3.19764V4V4.80236V5.60472V6.39528V7.19764V8V8.80236V9.59292V10.3953V11.1976V12V12.8024V13.5929V14.3953V15.1976V16V16.8024V17.5929V18.3953V19.1976H0.85133H1.71518V18.3953V17.5929V16.8024V16V15.1976V14.3953V13.5929V12.8024V12V11.1976V10.3953V9.59292V8.80236V8V7.19764V6.39528V5.60472V4.80236V4V3.19764V2.39528V1.60472H2.56651H3.43036H4.28169H5.14554H5.99687H6.86072H7.71205H8.56338H9.42723H10.2786H11.1424H11.9937H12.8576H13.7089H14.5728H15.4241H16.2754H17.1393H17.9906H18.8545H19.7058H20.5696H21.421H22.2848V2.39528V3.19764V4V4.80236V5.60472V6.39528V7.19764V8V8.80236V9.59292V10.3953V11.1976V12V12.8024V13.5929V14.3953V15.1976V16V16.8024V17.5929V18.3953V19.1976H23.1362H24V18.3953V17.5929V16.8024V16V15.1976V14.3953V13.5929V12.8024V12V11.1976V10.3953V9.59292V8.80236V8V7.19764V6.39528V5.60472V4.80236V4V3.19764V2.39528V1.60472V0.80236V0H23.1362Z"
            fill="black"></path>
        <path
            d="M18.8545 3.19775H17.9906H17.1393H16.2754H15.4241H14.5728H13.7089H12.8576H11.9937H11.1424H10.2786H9.42723H8.56338H7.71205H6.86072H5.99687H5.14554H4.28169H3.43036V4.00011V4.80247V5.60483V6.39539V7.19775V8.00011V8.80247V9.59303V10.3954V11.1978V12.0001V12.8025V13.593V14.3954V15.1978V16.0001V16.8025V17.593H4.28169H5.14554V16.8025V16.0001V15.1978V14.3954V13.593V12.8025V12.0001V11.1978V10.3954V9.59303V8.80247V8.00011V7.19775V6.39539V5.60483V4.80247H5.99687H6.86072H7.71205H8.56338H9.42723H10.2786H11.1424H11.9937H12.8576H13.7089H14.5728H15.4241H16.2754H17.1393H17.9906H18.8545V5.60483V6.39539V7.19775V8.00011V8.80247V9.59303V10.3954V11.1978V12.0001V12.8025V13.593V14.3954V15.1978V16.0001V16.8025V17.593H19.7058H20.5696V16.8025V16.0001V15.1978V14.3954V13.593V12.8025V12.0001V11.1978V10.3954V9.59303V8.80247V8.00011V7.19775V6.39539V5.60483V4.80247V4.00011V3.19775H19.7058H18.8545Z"
            fill="black"></path>
        <path d="M6.86072 17.593H5.99687H5.14554V18.3954V19.1977H5.99687H6.86072V18.3954V17.593Z" fill="black"></path>
        <path d="M17.1393 17.593V18.3954V19.1977H17.9906H18.8545V18.3954V17.593H17.9906H17.1393Z" fill="black"></path>
        <path d="M3.43036 19.1978H2.56651H1.71518V20.0001V20.8025H2.56651H3.43036V20.0001V19.1978Z" fill="black"></path>
        <path
            d="M15.4241 19.1978H14.5728H13.7089H12.8576H11.9937H11.1424H10.2786H9.42723H8.56338H7.71205H6.86072V20.0001V20.8025H7.71205H8.56338H9.42723H10.2786H11.1424H11.9937H12.8576H13.7089H14.5728H15.4241H16.2754H17.1393V20.0001V19.1978H16.2754H15.4241Z"
            fill="black"></path>
        <path d="M20.5696 19.1978V20.0001V20.8025H21.421H22.2848V20.0001V19.1978H21.421H20.5696Z" fill="black"></path>
        <path d="M5.14554 20.8022H4.28169H3.43036V21.5928V22.3952H4.28169H5.14554V21.5928V20.8022Z" fill="black"></path>
        <path d="M18.8545 20.8022V21.5928V22.3952H19.7058H20.5696V21.5928V20.8022H19.7058H18.8545Z" fill="black"></path>
        <path
            d="M17.1393 22.3953H16.2754H15.4241H14.5728H13.7089H12.8576H11.9937H11.1424H10.2786H9.42723H8.56338H7.71205H6.86072H5.99687H5.14554V23.1976V24H5.99687H6.86072H7.71205H8.56338H9.42723H10.2786H11.1424H11.9937H12.8576H13.7089H14.5728H15.4241H16.2754H17.1393H17.9906H18.8545V23.1976V22.3953H17.9906H17.1393Z"
            fill="black"></path>
        <path
            d="M7.22379 9H8.22535V11.2026H7.22379V9ZM7.22379 14.5133V12.3108H8.22535V14.5133H7.22379ZM8.22535 11.2026H10.216V12.3108H8.22535V11.2026V11.2026ZM11.2175 9V11.2026H10.216V9H11.2175ZM11.2175 14.5133H10.216V12.3108H11.2175V14.5133Z"
            fill="#605146"></path>
        <path
            d="M13.6588 12.3108V14.5133H12.6573V9H16.651V12.3108H13.6588V12.3108ZM15.6494 10.1082H13.6588V11.2164H15.6494V10.1082Z"
            fill="#605146"></path>
    </g>
    <defs>
        <clipPath id="clip0_1403_12383">
            <rect width="24" height="24" fill="white"></rect>
        </clipPath>
    </defs>
</svg>